<?xml version="1.0" encoding="UTF-8"?><svg id="Layer_1" xmlns="http://www.w3.org/2000/svg" viewBox="0 0 250 80"><defs><style>.cls-1,.cls-2{fill:#00a6a6;}.cls-2{font-family:InterFace-Bold, InterFace;font-size:4.8px;}</style></defs><polygon class="cls-1" points="1.26 45.06 1.26 53.43 11.66 53.43 5.55 45.06 1.26 45.06"/><path class="cls-1" d="M7.55,26.57c5.52,0,9.32,3.86,9.32,9.34,0,4.08-2.21,7.74-5.6,8.68l6.57,8.85h10.08L15.19,26.57H7.55Z"/><polygon class="cls-1" points="28.13 26.57 20.9 26.57 28.13 42.16 28.13 26.57"/><path class="cls-1" d="M6.33,40.54c4.37,0,5.41-2.37,5.41-4.67,0-2.63-1.6-4.7-5.41-4.7H1.26v9.38H6.33Z"/><path class="cls-1" d="M46.69,44.04v5.53h-3.3v-17.37h7.88c3.54,0,5.98,2.47,5.98,5.98,0,2.61-1.43,4.96-3.6,5.55l4.34,5.84h-3.96l-4.04-5.53h-3.3Zm0-2.89h3.8c2.8,0,3.47-1.52,3.47-2.99,0-1.69-1.02-3.01-3.47-3.01h-3.8v6.01Z"/><path class="cls-1" d="M66.15,35.14v4.34h8.41v2.94h-8.41v4.2h9.47v2.94h-12.77v-17.37h12.77v2.94h-9.47Z"/><path class="cls-1" d="M79.68,49.56l8.86-17.37h.33l8.88,17.37h-3.6l-1.35-2.73h-8.18l-1.33,2.73h-3.61Zm6.55-5.6h4.96l-2.47-5.24-2.49,5.24Z"/><path class="cls-1" d="M114.68,46.62v2.94h-12.51v-17.37h3.32v14.41l9.18,.02Z"/><path class="cls-1" d="M133.74,32.19l-7.88,17.37h-.45l-7.81-17.37h2.47l5.58,12.7,5.57-12.7h2.52Z"/><path class="cls-1" d="M141.31,49.56h-2.23v-17.37h2.23v17.37Z"/><path class="cls-1" d="M159.8,34.05h-5.27v15.52h-2.21v-15.52h-5.29v-1.85h12.77v1.85Z"/><path class="cls-1" d="M163.15,49.56l8.54-17.37h.48l8.54,17.37h-2.54l-1.55-3.3h-9.41l-1.54,3.3h-2.52Zm5.01-5.17h7.55l-3.75-8.04-3.8,8.04Z"/><path class="cls-1" d="M197.39,47.74v1.83h-11.97v-17.37h2.23v15.55h9.74Z"/><path class="cls-1" d="M204.94,49.56h-2.23v-17.37h2.23v17.37Z"/><path class="cls-1" d="M211.21,32.19h14.01v.48l-10.67,15h10.65v1.9h-14.31v-.48l10.73-15.04h-10.41v-1.85Z"/><path class="cls-1" d="M232.9,34.05v5.98h8.85v1.9h-8.85v5.75h10.01v1.9h-12.24v-17.37h12.24v1.85h-10.01Z"/><text class="cls-2" transform="translate(245.01 34.5)"><tspan x="0" y="0">®</tspan></text></svg>